<svg width="64" height="64" viewBox="0 0 64 64" fill="none" xmlns="http://www.w3.org/2000/svg">
<rect width="64" height="64" rx="10" fill="white"/>
<path d="M58.3597 8.40479C57.6014 8.68055 55.9813 9.26655 54.7403 9.71466C52.1206 10.6454 50.2937 11.3175 42.3311 14.1958C39.1081 15.3678 32.3692 17.7979 27.3366 19.6076C18.788 22.6927 18.1675 22.9512 17.6332 23.5544C17.0989 24.1404 17.0645 24.2783 17.1162 25.0711C17.254 26.6567 17.1162 26.5533 24.3204 30.0176C25.5958 30.6208 27.4917 31.5343 28.5258 32.0341L30.3872 32.9303L28.5085 34.8606C27.4744 35.912 24.4928 38.9454 21.873 41.5996C15.7891 47.7869 15.7029 47.8904 15.7029 48.8728C15.7201 49.5966 15.9442 49.9069 18.3571 52.5438C19.5635 53.8709 20.7183 55.1463 20.8906 55.3704C21.356 55.9564 22.235 56.2321 22.8727 55.9908C23.1657 55.8874 26.4748 52.6645 30.7146 48.3557L38.074 40.9101L39.539 43.9263C44.675 54.5259 44.2614 53.8537 45.6402 54.0433C46.4158 54.1467 47.3637 53.5952 47.7429 52.8196C47.967 52.3542 51.5691 41.7719 54.6542 32.5511C56.3087 27.6391 59.7902 17.3153 61.1173 13.4202C62.1514 10.3696 62.2204 9.71466 61.6171 8.87014C61.3069 8.4565 60.8933 8.23244 60.0832 8.00839C59.8936 7.95668 59.118 8.14627 58.3597 8.40479ZM54.5852 23.4165C52.4653 29.7246 49.587 38.2042 48.2082 42.289L45.7092 49.7L42.8654 43.9091C40.9523 39.9967 39.8665 37.9802 39.5562 37.7389C38.9358 37.2563 37.6431 37.2391 37.0227 37.7217C36.7641 37.9285 35.6094 39.066 34.4546 40.2725C33.2827 41.4617 30.1286 44.6846 27.4227 47.425L22.5107 52.4059L20.8389 50.6135C19.9082 49.6483 19.1671 48.7866 19.2016 48.7176C19.2533 48.5453 22.7176 44.9949 28.319 39.3245C31.3696 36.2394 33.3861 34.0506 33.5412 33.6887C33.9031 32.8269 33.8687 32.172 33.4205 31.4998C32.9897 30.8793 30.7319 29.6729 24.286 26.6567C22.5969 25.8812 21.2181 25.1918 21.2181 25.1228C21.2181 25.0539 21.4249 24.9332 21.7007 24.8298C23.3553 24.1921 32.3003 20.9864 33.2827 20.6589C33.524 20.59 34.7649 20.1419 36.0403 19.6593C38.8324 18.608 45.1232 16.3157 46.8122 15.7469C47.4844 15.5056 50.3454 14.4715 53.1892 13.4374C56.4983 12.231 58.3769 11.6278 58.4114 11.7484C58.4286 11.869 56.7051 17.1085 54.5852 23.4165Z" fill="#2B7FFF"/>
<path d="M9.1019 33.1542C8.22291 33.9815 8.60209 35.3086 9.80854 35.6533C10.1705 35.7567 12.48 35.8257 15.2721 35.8257C19.6325 35.8257 20.1668 35.7912 20.7011 35.5155C21.6663 34.9812 21.8214 33.8264 21.0113 33.0681C20.6494 32.7406 20.4254 32.7234 15.1169 32.7234H9.58449L9.1019 33.1542Z" fill="#2B7FFF"/>
<path d="M2.56981 41.6686C1.96658 42.1512 1.84593 42.7716 2.19063 43.4955C2.62151 44.409 3.08686 44.4779 8.25738 44.409L12.8074 44.3573L13.3073 43.7885C13.9105 43.1163 13.945 42.5476 13.3934 41.9099L12.9798 41.4273L7.99886 41.3756C3.2075 41.3239 3.00068 41.3411 2.56981 41.6686Z" fill="#2B7FFF"/>
</svg>
